<svg width="40" height="40" viewBox="0 0 40 40" fill="none" xmlns="http://www.w3.org/2000/svg">
<g clip-path="url(#clip0_4359_1570)">
<path fill-rule="evenodd" clip-rule="evenodd" d="M11.4171 31.6999H13.16V37.5114C13.16 38.8371 14.3771 39.9999 15.7714 39.9999C17.1657 39.9999 18.3857 38.8371 18.3857 37.5114V31.6999H21.8714V37.5114C21.8714 38.8371 23.0914 39.9999 24.4857 39.9999C25.8799 39.9999 27.0999 38.8371 27.0999 37.5114V31.6999H28.8428C29.8885 31.6999 30.5857 31.0371 30.5857 30.0428L30.5828 12.9571H9.67424V30.0428C9.67424 31.0371 10.3714 31.6999 11.4171 31.6999ZM5.93995 12.5171C4.74567 12.5171 3.69995 13.7714 3.69995 15.2028V27.7514C3.69995 29.1857 4.74567 30.4399 5.93995 30.4399C7.13424 30.4399 8.17995 29.1857 8.17995 27.7542V15.2028C8.17995 13.7685 7.13424 12.5142 5.93995 12.5142V12.5171ZM32.0771 15.2028V27.7514C32.0771 29.1857 33.1228 30.4399 34.32 30.4399C35.5142 30.4399 36.5599 29.1857 36.5599 27.7542V15.2028C36.5599 13.7685 35.5142 12.5142 34.32 12.5142C33.1228 12.5142 32.0771 13.7685 32.0771 15.1999V15.2028ZM28.4942 1.45708C28.5765 1.38416 28.6423 1.29464 28.6873 1.19442C28.7324 1.09419 28.7557 0.985546 28.7557 0.875652C28.7557 0.765758 28.7324 0.657114 28.6873 0.556889C28.6423 0.456665 28.5765 0.36714 28.4942 0.294224C28.3313 0.134554 28.1123 0.0451195 27.8842 0.0451195C27.6561 0.0451195 27.4371 0.134554 27.2742 0.294224L24.6571 2.78279C23.44 1.95137 21.8714 1.61994 20.1285 1.61994C18.5049 1.59434 16.8965 1.93517 15.4228 2.61708L12.9857 0.125652C12.5358 -0.040582 12.0413 -0.040582 11.5914 0.125652C11.4172 0.551383 11.4172 1.02849 11.5914 1.45422L13.8571 3.61137C11.4171 5.43994 9.67424 8.2628 9.67424 11.5199H30.5857C30.5764 9.94295 30.1729 8.39332 29.4119 7.01207C28.6509 5.63081 27.5566 4.46178 26.2285 3.61137L28.4942 1.45708ZM17.3371 8.74279H14.3685V5.75994H17.3371V8.74279ZM23.0085 8.74279V5.75994H25.9742V8.74279H23.0085Z" fill="#727474"/>
</g>
<defs>
<clipPath id="clip0_4359_1570">
<rect width="40" height="40" fill="white"/>
</clipPath>
</defs>
</svg>
