<svg width="40" height="40" viewBox="0 0 40 40" fill="none" xmlns="http://www.w3.org/2000/svg">
<g clip-path="url(#clip0_4359_1567)">
<path fill-rule="evenodd" clip-rule="evenodd" d="M37.1915 29.3458C36.2515 31.4287 35.8029 32.3572 34.5915 34.1972C32.9057 36.7687 30.5257 39.9687 27.5772 39.9944C24.9543 40.0172 24.2829 38.2887 20.7286 38.3087C17.1743 38.3287 16.4315 40.0229 13.8143 40.0001C10.8629 39.9715 8.6086 37.0858 6.92003 34.5144C2.20003 27.3315 1.70574 18.8972 4.61717 14.4172C6.6886 11.2315 9.95146 9.37151 13.02 9.37151C16.1457 9.37151 18.1057 11.0829 20.6915 11.0829C23.1972 11.0829 24.7257 9.36865 28.3372 9.36865C31.0686 9.36865 33.9629 10.8544 36.0229 13.4229C29.2686 17.1258 30.3657 26.7715 37.1943 29.3487L37.1915 29.3458Z" fill="#727474"/>
<path fill-rule="evenodd" clip-rule="evenodd" d="M25.5971 6.49429C26.9086 4.80857 27.9057 2.42857 27.5429 0C25.4 0.148571 22.8943 1.51429 21.4286 3.28857C20.0972 4.90286 19 7.29714 19.4286 9.62286C21.7714 9.69714 24.1914 8.29714 25.5971 6.49429Z" fill="#727474"/>
</g>
<defs>
<clipPath id="clip0_4359_1567">
<rect width="40" height="40" fill="white"/>
</clipPath>
</defs>
</svg>
