<svg width="189" height="58" viewBox="0 0 189 58" fill="none" xmlns="http://www.w3.org/2000/svg">
<rect x="0.87793" width="187.878" height="57.8086" rx="8.67129" fill="black"/>
<path fill-rule="evenodd" clip-rule="evenodd" d="M38.1805 29.8388C38.2121 27.3871 39.4975 25.1224 41.5863 23.8382C40.2625 21.9477 38.1249 20.7921 35.8182 20.7199C33.3913 20.4652 31.0386 22.1721 29.8019 22.1721C28.5413 22.1721 26.6372 20.7452 24.5868 20.7874C21.8891 20.8745 19.435 22.3712 18.1225 24.7297C15.3275 29.5689 17.4123 36.6809 20.0897 40.5925C21.4293 42.5079 22.9949 44.6475 25.0434 44.5716C27.048 44.4885 27.7967 43.2934 30.2164 43.2934C32.6137 43.2934 33.3161 44.5716 35.4062 44.5234C37.5572 44.4885 38.9124 42.5995 40.205 40.6659C41.1675 39.3011 41.9081 37.7927 42.3995 36.1966C39.8447 35.116 38.1835 32.6127 38.1805 29.8388Z" fill="white"/>
<path fill-rule="evenodd" clip-rule="evenodd" d="M34.2327 18.1474C35.4056 16.7394 35.9834 14.9297 35.8435 13.1027C34.0516 13.2909 32.3965 14.1472 31.2078 15.5012C30.0341 16.837 29.4394 18.5846 29.5549 20.3591C31.3708 20.3778 33.0949 19.5626 34.2327 18.1474Z" fill="white"/>
<path d="M64.2472 12.4577H65.1022C65.0542 12.1157 64.9522 11.8157 64.7962 11.5577C64.6402 11.2937 64.4452 11.0747 64.2112 10.9007C63.9772 10.7267 63.7102 10.5947 63.4102 10.5047C63.1102 10.4147 62.7922 10.3697 62.4562 10.3697C61.9642 10.3697 61.5262 10.4597 61.1422 10.6397C60.7642 10.8137 60.4462 11.0537 60.1882 11.3597C59.9362 11.6657 59.7442 12.0257 59.6122 12.4397C59.4802 12.8477 59.4142 13.2857 59.4142 13.7537C59.4142 14.2217 59.4742 14.6597 59.5942 15.0677C59.7202 15.4757 59.9062 15.8297 60.1522 16.1297C60.3982 16.4297 60.7072 16.6667 61.0792 16.8407C61.4512 17.0087 61.8862 17.0927 62.3842 17.0927C63.2062 17.0927 63.8542 16.8677 64.3282 16.4177C64.8022 15.9677 65.0812 15.3377 65.1652 14.5277H64.3102C64.2922 14.7917 64.2382 15.0377 64.1482 15.2657C64.0582 15.4937 63.9322 15.6917 63.7702 15.8597C63.6142 16.0217 63.4252 16.1507 63.2032 16.2467C62.9872 16.3367 62.7382 16.3817 62.4562 16.3817C62.0722 16.3817 61.7422 16.3097 61.4662 16.1657C61.1902 16.0217 60.9622 15.8297 60.7822 15.5897C60.6082 15.3437 60.4792 15.0587 60.3952 14.7347C60.3112 14.4047 60.2692 14.0567 60.2692 13.6907C60.2692 13.3547 60.3112 13.0307 60.3952 12.7187C60.4792 12.4067 60.6082 12.1307 60.7822 11.8907C60.9622 11.6447 61.1872 11.4497 61.4572 11.3057C61.7332 11.1617 62.0632 11.0897 62.4472 11.0897C62.8972 11.0897 63.2842 11.2037 63.6082 11.4317C63.9382 11.6597 64.1512 12.0017 64.2472 12.4577ZM66.8363 14.6267C66.8363 14.3447 66.8723 14.0957 66.9443 13.8797C67.0223 13.6577 67.1273 13.4717 67.2593 13.3217C67.3913 13.1717 67.5443 13.0577 67.7183 12.9797C67.8983 12.9017 68.0873 12.8627 68.2853 12.8627C68.4833 12.8627 68.6693 12.9017 68.8433 12.9797C69.0233 13.0577 69.1793 13.1717 69.3113 13.3217C69.4433 13.4717 69.5453 13.6577 69.6173 13.8797C69.6953 14.0957 69.7343 14.3447 69.7343 14.6267C69.7343 14.9087 69.6953 15.1607 69.6173 15.3827C69.5453 15.5987 69.4433 15.7817 69.3113 15.9317C69.1793 16.0757 69.0233 16.1867 68.8433 16.2647C68.6693 16.3427 68.4833 16.3817 68.2853 16.3817C68.0873 16.3817 67.8983 16.3427 67.7183 16.2647C67.5443 16.1867 67.3913 16.0757 67.2593 15.9317C67.1273 15.7817 67.0223 15.5987 66.9443 15.3827C66.8723 15.1607 66.8363 14.9087 66.8363 14.6267ZM66.0263 14.6267C66.0263 14.9687 66.0743 15.2867 66.1703 15.5807C66.2663 15.8747 66.4103 16.1327 66.6023 16.3547C66.7943 16.5707 67.0313 16.7417 67.3133 16.8677C67.5953 16.9877 67.9193 17.0477 68.2853 17.0477C68.6573 17.0477 68.9813 16.9877 69.2573 16.8677C69.5393 16.7417 69.7763 16.5707 69.9683 16.3547C70.1603 16.1327 70.3043 15.8747 70.4003 15.5807C70.4963 15.2867 70.5443 14.9687 70.5443 14.6267C70.5443 14.2847 70.4963 13.9667 70.4003 13.6727C70.3043 13.3727 70.1603 13.1147 69.9683 12.8987C69.7763 12.6767 69.5393 12.5027 69.2573 12.3767C68.9813 12.2507 68.6573 12.1877 68.2853 12.1877C67.9193 12.1877 67.5953 12.2507 67.3133 12.3767C67.0313 12.5027 66.7943 12.6767 66.6023 12.8987C66.4103 13.1147 66.2663 13.3727 66.1703 13.6727C66.0743 13.9667 66.0263 14.2847 66.0263 14.6267ZM71.6263 12.2957V16.9487H72.3913V14.3207C72.3913 14.1107 72.4183 13.9187 72.4723 13.7447C72.5323 13.5647 72.6193 13.4087 72.7333 13.2767C72.8473 13.1447 72.9883 13.0427 73.1563 12.9707C73.3303 12.8987 73.5343 12.8627 73.7683 12.8627C74.0623 12.8627 74.2933 12.9467 74.4613 13.1147C74.6293 13.2827 74.7133 13.5107 74.7133 13.7987V16.9487H75.4783V13.8887C75.4783 13.6367 75.4513 13.4087 75.3973 13.2047C75.3493 12.9947 75.2623 12.8147 75.1363 12.6647C75.0103 12.5147 74.8453 12.3977 74.6413 12.3137C74.4373 12.2297 74.1823 12.1877 73.8763 12.1877C73.1863 12.1877 72.6823 12.4697 72.3643 13.0337H72.3463V12.2957H71.6263ZM77.2753 15.4817H76.5103C76.5223 15.7697 76.5823 16.0157 76.6903 16.2197C76.7983 16.4177 76.9423 16.5797 77.1223 16.7057C77.3023 16.8257 77.5093 16.9127 77.7433 16.9667C77.9773 17.0207 78.2233 17.0477 78.4813 17.0477C78.7153 17.0477 78.9493 17.0237 79.1833 16.9757C79.4233 16.9337 79.6363 16.8557 79.8223 16.7417C80.0143 16.6277 80.1673 16.4777 80.2813 16.2917C80.4013 16.1057 80.4613 15.8717 80.4613 15.5897C80.4613 15.3677 80.4163 15.1817 80.3263 15.0317C80.2423 14.8817 80.1283 14.7587 79.9843 14.6627C79.8463 14.5607 79.6843 14.4797 79.4983 14.4197C79.3183 14.3597 79.1323 14.3087 78.9403 14.2667C78.7603 14.2247 78.5803 14.1857 78.4003 14.1497C78.2203 14.1077 78.0583 14.0597 77.9143 14.0057C77.7703 13.9457 77.6503 13.8737 77.5543 13.7897C77.4643 13.6997 77.4193 13.5887 77.4193 13.4567C77.4193 13.3367 77.4493 13.2407 77.5093 13.1687C77.5693 13.0907 77.6473 13.0307 77.7433 12.9887C77.8393 12.9407 77.9443 12.9077 78.0583 12.8897C78.1783 12.8717 78.2953 12.8627 78.4093 12.8627C78.5353 12.8627 78.6583 12.8777 78.7783 12.9077C78.9043 12.9317 79.0183 12.9737 79.1203 13.0337C79.2223 13.0937 79.3063 13.1747 79.3723 13.2767C79.4383 13.3727 79.4773 13.4957 79.4893 13.6457H80.2543C80.2363 13.3637 80.1763 13.1297 80.0743 12.9437C79.9723 12.7517 79.8343 12.6017 79.6603 12.4937C79.4923 12.3797 79.2973 12.3017 79.0753 12.2597C78.8533 12.2117 78.6103 12.1877 78.3463 12.1877C78.1423 12.1877 77.9353 12.2147 77.7253 12.2687C77.5213 12.3167 77.3353 12.3947 77.1673 12.5027C77.0053 12.6047 76.8703 12.7397 76.7623 12.9077C76.6603 13.0757 76.6093 13.2767 76.6093 13.5107C76.6093 13.8107 76.6843 14.0447 76.8343 14.2127C76.9843 14.3807 77.1703 14.5127 77.3923 14.6087C77.6203 14.6987 77.8663 14.7707 78.1303 14.8247C78.3943 14.8727 78.6373 14.9297 78.8593 14.9957C79.0873 15.0557 79.2763 15.1367 79.4263 15.2387C79.5763 15.3407 79.6513 15.4907 79.6513 15.6887C79.6513 15.8327 79.6153 15.9527 79.5433 16.0487C79.4713 16.1387 79.3783 16.2077 79.2643 16.2557C79.1563 16.3037 79.0363 16.3367 78.9043 16.3547C78.7723 16.3727 78.6463 16.3817 78.5263 16.3817C78.3703 16.3817 78.2173 16.3667 78.0673 16.3367C77.9233 16.3067 77.7913 16.2587 77.6713 16.1927C77.5573 16.1207 77.4643 16.0277 77.3923 15.9137C77.3203 15.7937 77.2813 15.6497 77.2753 15.4817ZM81.5323 16.9487H82.2973V12.2957H81.5323V16.9487ZM83.2063 10.0187L81.9373 11.4767H81.3613L82.2253 10.0187H83.2063ZM87.6764 16.5527V12.2957H86.9564V12.9617H86.9474C86.8094 12.7037 86.6174 12.5117 86.3714 12.3857C86.1254 12.2537 85.8554 12.1877 85.5614 12.1877C85.1594 12.1877 84.8204 12.2657 84.5444 12.4217C84.2684 12.5717 84.0464 12.7667 83.8784 13.0067C83.7104 13.2407 83.5904 13.5047 83.5184 13.7987C83.4464 14.0867 83.4104 14.3687 83.4104 14.6447C83.4104 14.9627 83.4524 15.2657 83.5364 15.5537C83.6264 15.8357 83.7584 16.0847 83.9324 16.3007C84.1064 16.5107 84.3224 16.6787 84.5804 16.8047C84.8384 16.9307 85.1414 16.9937 85.4894 16.9937C85.7894 16.9937 86.0714 16.9277 86.3354 16.7957C86.6054 16.6577 86.8064 16.4447 86.9384 16.1567H86.9564V16.4627C86.9564 16.7207 86.9294 16.9577 86.8754 17.1737C86.8274 17.3897 86.7464 17.5727 86.6324 17.7227C86.5184 17.8787 86.3744 17.9987 86.2004 18.0827C86.0264 18.1727 85.8134 18.2177 85.5614 18.2177C85.4354 18.2177 85.3034 18.2027 85.1654 18.1727C85.0274 18.1487 84.8984 18.1067 84.7784 18.0467C84.6644 17.9867 84.5654 17.9087 84.4814 17.8127C84.4034 17.7167 84.3614 17.5997 84.3554 17.4617H83.5904C83.6024 17.7137 83.6684 17.9267 83.7884 18.1007C83.9084 18.2747 84.0584 18.4157 84.2384 18.5237C84.4244 18.6317 84.6284 18.7097 84.8504 18.7577C85.0784 18.8057 85.3004 18.8297 85.5164 18.8297C86.2604 18.8297 86.8064 18.6407 87.1544 18.2627C87.5024 17.8847 87.6764 17.3147 87.6764 16.5527ZM85.5344 16.3277C85.2824 16.3277 85.0724 16.2767 84.9044 16.1747C84.7364 16.0667 84.6014 15.9287 84.4994 15.7607C84.3974 15.5867 84.3254 15.3947 84.2834 15.1847C84.2414 14.9747 84.2204 14.7647 84.2204 14.5547C84.2204 14.3327 84.2444 14.1197 84.2924 13.9157C84.3464 13.7117 84.4274 13.5317 84.5354 13.3757C84.6494 13.2197 84.7934 13.0967 84.9674 13.0067C85.1414 12.9107 85.3514 12.8627 85.5974 12.8627C85.8374 12.8627 86.0414 12.9107 86.2094 13.0067C86.3774 13.1027 86.5124 13.2317 86.6144 13.3937C86.7224 13.5497 86.8004 13.7267 86.8484 13.9247C86.8964 14.1227 86.9204 14.3237 86.9204 14.5277C86.9204 14.7437 86.8934 14.9597 86.8394 15.1757C86.7914 15.3917 86.7134 15.5867 86.6054 15.7607C86.4974 15.9287 86.3534 16.0667 86.1734 16.1747C85.9994 16.2767 85.7864 16.3277 85.5344 16.3277ZM92.8624 16.9487V12.2957H92.0974V14.9237C92.0974 15.1337 92.0674 15.3287 92.0074 15.5087C91.9534 15.6827 91.8694 15.8357 91.7554 15.9677C91.6414 16.0997 91.4974 16.2017 91.3234 16.2737C91.1554 16.3457 90.9544 16.3817 90.7204 16.3817C90.4264 16.3817 90.1954 16.2977 90.0274 16.1297C89.8594 15.9617 89.7754 15.7337 89.7754 15.4457V12.2957H89.0104V15.3557C89.0104 15.6077 89.0344 15.8387 89.0824 16.0487C89.1364 16.2527 89.2264 16.4297 89.3524 16.5797C89.4784 16.7297 89.6434 16.8467 89.8474 16.9307C90.0514 17.0087 90.3064 17.0477 90.6124 17.0477C90.9544 17.0477 91.2514 16.9817 91.5034 16.8497C91.7554 16.7117 91.9624 16.4987 92.1244 16.2107H92.1424V16.9487H92.8624ZM97.4223 14.1767H94.7493C94.7613 13.9967 94.8003 13.8287 94.8663 13.6727C94.9323 13.5107 95.0223 13.3697 95.1363 13.2497C95.2503 13.1297 95.3853 13.0367 95.5413 12.9707C95.7033 12.8987 95.8833 12.8627 96.0813 12.8627C96.2733 12.8627 96.4473 12.8987 96.6033 12.9707C96.7653 13.0367 96.9033 13.1297 97.0173 13.2497C97.1373 13.3637 97.2303 13.5017 97.2963 13.6637C97.3683 13.8257 97.4103 13.9967 97.4223 14.1767ZM98.1603 15.4727H97.4043C97.3383 15.7787 97.2003 16.0067 96.9903 16.1567C96.7863 16.3067 96.5223 16.3817 96.1983 16.3817C95.9463 16.3817 95.7273 16.3397 95.5413 16.2557C95.3553 16.1717 95.2023 16.0607 95.0823 15.9227C94.9623 15.7787 94.8753 15.6167 94.8213 15.4367C94.7673 15.2507 94.7433 15.0557 94.7493 14.8517H98.2323C98.2443 14.5697 98.2173 14.2727 98.1513 13.9607C98.0913 13.6487 97.9773 13.3607 97.8093 13.0967C97.6473 12.8327 97.4283 12.6167 97.1523 12.4487C96.8823 12.2747 96.5403 12.1877 96.1263 12.1877C95.8083 12.1877 95.5143 12.2477 95.2443 12.3677C94.9803 12.4877 94.7493 12.6557 94.5513 12.8717C94.3593 13.0877 94.2093 13.3427 94.1013 13.6367C93.9933 13.9307 93.9393 14.2547 93.9393 14.6087C93.9513 14.9627 94.0023 15.2897 94.0923 15.5897C94.1883 15.8897 94.3293 16.1477 94.5153 16.3637C94.7013 16.5797 94.9293 16.7477 95.1993 16.8677C95.4753 16.9877 95.7993 17.0477 96.1713 17.0477C96.6993 17.0477 97.1373 16.9157 97.4853 16.6517C97.8333 16.3877 98.0583 15.9947 98.1603 15.4727ZM99.2503 10.5227V16.9487H100.015V10.5227H99.2503ZM101.938 14.6267C101.938 14.3447 101.974 14.0957 102.046 13.8797C102.124 13.6577 102.229 13.4717 102.361 13.3217C102.493 13.1717 102.646 13.0577 102.82 12.9797C103 12.9017 103.189 12.8627 103.387 12.8627C103.585 12.8627 103.771 12.9017 103.945 12.9797C104.125 13.0577 104.281 13.1717 104.413 13.3217C104.545 13.4717 104.647 13.6577 104.719 13.8797C104.797 14.0957 104.836 14.3447 104.836 14.6267C104.836 14.9087 104.797 15.1607 104.719 15.3827C104.647 15.5987 104.545 15.7817 104.413 15.9317C104.281 16.0757 104.125 16.1867 103.945 16.2647C103.771 16.3427 103.585 16.3817 103.387 16.3817C103.189 16.3817 103 16.3427 102.82 16.2647C102.646 16.1867 102.493 16.0757 102.361 15.9317C102.229 15.7817 102.124 15.5987 102.046 15.3827C101.974 15.1607 101.938 14.9087 101.938 14.6267ZM101.128 14.6267C101.128 14.9687 101.176 15.2867 101.272 15.5807C101.368 15.8747 101.512 16.1327 101.704 16.3547C101.896 16.5707 102.133 16.7417 102.415 16.8677C102.697 16.9877 103.021 17.0477 103.387 17.0477C103.759 17.0477 104.083 16.9877 104.359 16.8677C104.641 16.7417 104.878 16.5707 105.07 16.3547C105.262 16.1327 105.406 15.8747 105.502 15.5807C105.598 15.2867 105.646 14.9687 105.646 14.6267C105.646 14.2847 105.598 13.9667 105.502 13.6727C105.406 13.3727 105.262 13.1147 105.07 12.8987C104.878 12.6767 104.641 12.5027 104.359 12.3767C104.083 12.2507 103.759 12.1877 103.387 12.1877C103.021 12.1877 102.697 12.2507 102.415 12.3767C102.133 12.5027 101.896 12.6767 101.704 12.8987C101.512 13.1147 101.368 13.3727 101.272 13.6727C101.176 13.9667 101.128 14.2847 101.128 14.6267ZM112.644 14.1767H109.971C109.983 13.9967 110.022 13.8287 110.088 13.6727C110.154 13.5107 110.244 13.3697 110.358 13.2497C110.472 13.1297 110.607 13.0367 110.763 12.9707C110.925 12.8987 111.105 12.8627 111.303 12.8627C111.495 12.8627 111.669 12.8987 111.825 12.9707C111.987 13.0367 112.125 13.1297 112.239 13.2497C112.359 13.3637 112.452 13.5017 112.518 13.6637C112.59 13.8257 112.632 13.9967 112.644 14.1767ZM113.382 15.4727H112.626C112.56 15.7787 112.422 16.0067 112.212 16.1567C112.008 16.3067 111.744 16.3817 111.42 16.3817C111.168 16.3817 110.949 16.3397 110.763 16.2557C110.577 16.1717 110.424 16.0607 110.304 15.9227C110.184 15.7787 110.097 15.6167 110.043 15.4367C109.989 15.2507 109.965 15.0557 109.971 14.8517H113.454C113.466 14.5697 113.439 14.2727 113.373 13.9607C113.313 13.6487 113.199 13.3607 113.031 13.0967C112.869 12.8327 112.65 12.6167 112.374 12.4487C112.104 12.2747 111.762 12.1877 111.348 12.1877C111.03 12.1877 110.736 12.2477 110.466 12.3677C110.202 12.4877 109.971 12.6557 109.773 12.8717C109.581 13.0877 109.431 13.3427 109.323 13.6367C109.215 13.9307 109.161 14.2547 109.161 14.6087C109.173 14.9627 109.224 15.2897 109.314 15.5897C109.41 15.8897 109.551 16.1477 109.737 16.3637C109.923 16.5797 110.151 16.7477 110.421 16.8677C110.697 16.9877 111.021 17.0477 111.393 17.0477C111.921 17.0477 112.359 16.9157 112.707 16.6517C113.055 16.3877 113.28 15.9947 113.382 15.4727ZM114.427 12.2957V16.9487H115.192V14.3207C115.192 14.1107 115.219 13.9187 115.273 13.7447C115.333 13.5647 115.42 13.4087 115.534 13.2767C115.648 13.1447 115.789 13.0427 115.957 12.9707C116.131 12.8987 116.335 12.8627 116.569 12.8627C116.863 12.8627 117.094 12.9467 117.262 13.1147C117.43 13.2827 117.514 13.5107 117.514 13.7987V16.9487H118.279V13.8887C118.279 13.6367 118.252 13.4087 118.198 13.2047C118.15 12.9947 118.063 12.8147 117.937 12.6647C117.811 12.5147 117.646 12.3977 117.442 12.3137C117.238 12.2297 116.983 12.1877 116.677 12.1877C115.987 12.1877 115.483 12.4697 115.165 13.0337H115.147V12.2957H114.427ZM125.524 14.1767H122.851C122.863 13.9967 122.902 13.8287 122.968 13.6727C123.034 13.5107 123.124 13.3697 123.238 13.2497C123.352 13.1297 123.487 13.0367 123.643 12.9707C123.805 12.8987 123.985 12.8627 124.183 12.8627C124.375 12.8627 124.549 12.8987 124.705 12.9707C124.867 13.0367 125.005 13.1297 125.119 13.2497C125.239 13.3637 125.332 13.5017 125.398 13.6637C125.47 13.8257 125.512 13.9967 125.524 14.1767ZM126.262 15.4727H125.506C125.44 15.7787 125.302 16.0067 125.092 16.1567C124.888 16.3067 124.624 16.3817 124.3 16.3817C124.048 16.3817 123.829 16.3397 123.643 16.2557C123.457 16.1717 123.304 16.0607 123.184 15.9227C123.064 15.7787 122.977 15.6167 122.923 15.4367C122.869 15.2507 122.845 15.0557 122.851 14.8517H126.334C126.346 14.5697 126.319 14.2727 126.253 13.9607C126.193 13.6487 126.079 13.3607 125.911 13.0967C125.749 12.8327 125.53 12.6167 125.254 12.4487C124.984 12.2747 124.642 12.1877 124.228 12.1877C123.91 12.1877 123.616 12.2477 123.346 12.3677C123.082 12.4877 122.851 12.6557 122.653 12.8717C122.461 13.0877 122.311 13.3427 122.203 13.6367C122.095 13.9307 122.041 14.2547 122.041 14.6087C122.053 14.9627 122.104 15.2897 122.194 15.5897C122.29 15.8897 122.431 16.1477 122.617 16.3637C122.803 16.5797 123.031 16.7477 123.301 16.8677C123.577 16.9877 123.901 17.0477 124.273 17.0477C124.801 17.0477 125.239 16.9157 125.587 16.6517C125.935 16.3877 126.16 15.9947 126.262 15.4727ZM127.352 10.5227V16.9487H128.117V10.5227H127.352Z" fill="white"/>
<path d="M83.2005 31.8567C86.5213 31.8567 88.7104 34.4818 88.7104 38.5366C88.7104 42.6027 86.5341 45.2151 83.2499 45.2151C81.5523 45.3039 79.9533 44.4147 79.133 42.9259H79.0709V49.4068H76.3851V31.9936H78.9848V34.1699H79.0342C79.8909 32.6904 81.4917 31.8016 83.2005 31.8567ZM97.6018 31.8567C100.923 31.8567 103.112 34.4818 103.112 38.5366C103.112 42.6027 100.935 45.2151 97.6512 45.2151C95.9536 45.3039 94.3546 44.4147 93.5343 42.9259H93.4722V49.4068H90.7864V31.9936H93.3861V34.1699H93.4355C94.2922 32.6904 95.893 31.8016 97.6018 31.8567ZM116.884 26.8323C120.676 26.8323 123.276 28.9592 123.363 32.0557H120.652C120.49 30.2647 119.009 29.1836 116.845 29.1836C114.682 29.1836 113.201 30.2774 113.201 31.8694C113.201 33.1382 114.147 33.8848 116.46 34.4563L118.437 34.9418C122.12 35.8126 123.65 37.2917 123.65 39.9168C123.65 43.2744 120.975 45.3773 116.721 45.3773C112.741 45.3773 110.054 43.3238 109.88 40.0777L112.63 40.0778C112.829 41.8575 114.558 43.026 116.92 43.026C119.184 43.026 120.813 41.8575 120.813 40.2527C120.813 38.8597 119.83 38.0257 117.505 37.4541L115.179 36.8937C111.883 36.0977 110.353 34.5566 110.353 32.0557C110.353 28.9592 113.052 26.8323 116.884 26.8323ZM139.581 31.8327C143.375 31.8327 145.788 34.4197 145.788 38.5366C145.788 42.6648 143.387 45.2405 139.581 45.2405C135.776 45.2405 133.375 42.6648 133.375 38.5366C133.375 34.4197 135.8 31.8327 139.581 31.8327ZM161.33 31.8327C164.95 31.8327 167.226 34.3195 167.226 38.2868V39.207H157.985V39.3693C157.898 40.3434 158.235 41.3077 158.908 42.0168C159.582 42.7259 160.527 43.1115 161.505 43.0755C162.808 43.1976 164.037 42.4492 164.526 41.2351L167.077 41.2351C166.715 43.6104 164.402 45.2405 161.443 45.2405C157.636 45.2405 155.274 42.6902 155.274 38.5987C155.274 34.4945 157.649 31.8327 161.33 31.8327ZM129.446 28.8971V31.9936H131.934V34.1205H129.446V41.3339C129.446 42.4545 129.944 42.9767 131.038 42.9767C131.333 42.9715 131.628 42.9508 131.921 42.9146V45.0287C131.43 45.1206 130.93 45.1622 130.43 45.1529C127.781 45.1529 126.747 44.1579 126.747 41.6203V34.1205H124.845V31.9936H126.747V28.8971H129.446ZM68.2374 27.1315L74.7169 45.0782H71.77L70.1286 40.2274H63.2879L61.645 45.0782H58.7476L65.227 27.1315H68.2374ZM153.773 31.8567C154.083 31.8556 154.391 31.8892 154.694 31.9569V34.4691C154.303 34.3497 153.895 34.2949 153.487 34.3068C152.697 34.2748 151.933 34.5895 151.395 35.1682C150.857 35.747 150.599 36.532 150.688 37.3172V45.0782H148.002V31.9936H150.564V34.2207H150.626C150.983 32.787 152.297 31.8003 153.773 31.8567ZM139.581 34.0457C137.405 34.0457 136.112 35.7252 136.112 38.5366C136.112 41.372 137.405 43.0261 139.581 43.0261C141.757 43.0261 143.051 41.372 143.051 38.5366C143.051 35.7125 141.757 34.0457 139.581 34.0457ZM82.492 34.1459C80.4399 34.1459 79.0596 35.9242 79.0596 38.5366C79.0596 41.173 80.4399 42.9386 82.492 42.9386C84.5808 42.9386 85.9498 41.2097 85.9498 38.5366C85.9498 35.8875 84.5808 34.1459 82.492 34.1459ZM96.8933 34.1459C94.8412 34.1459 93.4609 35.9242 93.4609 38.5366C93.4609 41.173 94.8412 42.9386 96.8933 42.9386C98.9821 42.9386 100.351 41.2097 100.351 38.5366C100.351 35.8875 98.9821 34.1459 96.8933 34.1459ZM66.7457 30.1165H66.6709L63.9963 37.989H69.4188L66.7457 30.1165ZM161.33 34.009C160.446 34.0038 159.597 34.3516 158.972 34.9752C158.346 35.5988 157.995 36.4465 157.997 37.3299H164.539C164.588 36.4546 164.269 35.5986 163.66 34.9682C163.051 34.3379 162.206 33.9902 161.33 34.009Z" fill="white"/>
</svg>
