<svg width="188" height="58" viewBox="0 0 188 58" fill="none" xmlns="http://www.w3.org/2000/svg">
<rect width="187.878" height="57.8086" rx="8.67129" fill="black"/>
<path fill-rule="evenodd" clip-rule="evenodd" d="M13.6967 11.0029C13.2761 11.448 13.029 12.1374 13.029 13.0319V44.9683C13.029 45.8629 13.2761 46.5523 13.6967 46.9974L13.8036 47.1014L31.6939 29.2111V28.7891L13.8036 10.8988L13.6967 11.0029Z" fill="#00D7FE"/>
<mask id="mask0_4359_1574" style="mask-type:alpha" maskUnits="userSpaceOnUse" x="31" y="22" width="16" height="14">
<path d="M37.6554 35.1768L31.6939 29.211V28.789L37.6583 22.8246L44.8584 26.9145C46.8759 28.062 46.8759 29.9379 44.8584 31.084L37.7927 35.0988L37.6554 35.1768Z" fill="white"/>
</mask>
<g mask="url(#mask0_4359_1574)">
<path fill-rule="evenodd" clip-rule="evenodd" d="M37.6554 35.1768L31.6939 29.211V28.789L37.6583 22.8246L44.8584 26.9145C46.8759 28.062 46.8759 29.9379 44.8584 31.084L37.7927 35.0988L37.6554 35.1768Z" fill="url(#paint0_linear_4359_1574)"/>
</g>
<mask id="mask1_4359_1574" style="mask-type:alpha" maskUnits="userSpaceOnUse" x="13" y="29" width="25" height="19">
<path d="M37.7927 35.0988L31.6939 29L13.6967 46.9973C14.3629 47.7011 15.4613 47.7878 16.6984 47.0854L37.7927 35.0988Z" fill="white"/>
</mask>
<g mask="url(#mask1_4359_1574)">
<path fill-rule="evenodd" clip-rule="evenodd" d="M37.7927 35.0988L31.6939 29L13.6967 46.9973C14.3629 47.7011 15.4613 47.7878 16.6984 47.0854L37.7927 35.0988Z" fill="url(#paint1_linear_4359_1574)"/>
</g>
<mask id="mask2_4359_1574" style="mask-type:alpha" maskUnits="userSpaceOnUse" x="13" y="10" width="25" height="20">
<path d="M37.7927 22.9013L16.6984 10.9147C15.4613 10.2123 14.3629 10.2991 13.6967 11.0029L31.6939 29.0001L37.7927 22.9013Z" fill="white"/>
</mask>
<g mask="url(#mask2_4359_1574)">
<path fill-rule="evenodd" clip-rule="evenodd" d="M37.7927 22.9013L16.6984 10.9147C15.4613 10.2123 14.3629 10.2991 13.6967 11.0029L31.6939 29.0001L37.7927 22.9013Z" fill="url(#paint2_linear_4359_1574)"/>
</g>
<path fill-rule="evenodd" clip-rule="evenodd" d="M150.21 44.8294H152.907V26.7627H150.21V44.8294ZM174.5 33.2705L171.409 41.1036H171.316L168.108 33.2705H165.203L170.014 44.218L167.271 50.3082H170.085L177.499 33.2705H174.5ZM159.207 42.7772C158.322 42.7772 157.091 42.3364 157.091 41.2438C157.091 39.8492 158.626 39.3144 159.949 39.3144C161.136 39.3144 161.692 39.5702 162.414 39.9185C162.204 41.5921 160.763 42.7772 159.207 42.7772ZM159.532 32.876C157.579 32.876 155.557 33.7359 154.721 35.6421L157.114 36.6408C157.626 35.6421 158.578 35.3155 159.578 35.3155C160.973 35.3155 162.39 36.1523 162.414 37.6409V37.8259C161.925 37.5469 160.88 37.1293 159.601 37.1293C157.021 37.1293 154.394 38.547 154.394 41.1961C154.394 43.6139 156.51 45.1719 158.88 45.1719C160.694 45.1719 161.692 44.3582 162.321 43.4044H162.414V44.799H165.016V37.8735C165.016 34.6652 162.623 32.876 159.532 32.876ZM142.866 35.4702H139.03V29.2774H142.866C144.882 29.2774 146.026 30.9466 146.026 32.3731C146.026 33.7735 144.882 35.4702 142.866 35.4702ZM142.796 26.7627H136.335V44.8294H139.03V37.9848H142.796C145.785 37.9848 148.723 35.8199 148.723 32.3731C148.723 28.9262 145.785 26.7627 142.796 26.7627ZM107.56 42.7801C105.698 42.7801 104.138 41.2207 104.138 39.0789C104.138 36.9139 105.698 35.33 107.56 35.33C109.4 35.33 110.843 36.9139 110.843 39.0789C110.843 41.2207 109.4 42.7801 107.56 42.7801ZM110.656 34.2822H110.564C109.958 33.561 108.795 32.9092 107.328 32.9092C104.254 32.9092 101.437 35.6089 101.437 39.0789C101.437 42.5242 104.254 45.2022 107.328 45.2022C108.795 45.2022 109.958 44.5504 110.564 43.8047H110.656V44.6892C110.656 47.042 109.4 48.2993 107.374 48.2993C105.721 48.2993 104.696 47.1114 104.277 46.1098L101.926 47.0882C102.6 48.7184 104.394 50.7201 107.374 50.7201C110.54 50.7201 113.218 48.8572 113.218 44.3178V33.2807H110.656V34.2822ZM115.081 44.8294H117.782V26.7613H115.081V44.8294ZM121.763 38.8693C121.693 36.4948 123.602 35.2837 124.975 35.2837C126.048 35.2837 126.955 35.8185 127.257 36.5873L121.763 38.8693ZM130.145 36.82C129.633 35.447 128.072 32.9092 124.883 32.9092C121.716 32.9092 119.086 35.3993 119.086 39.0557C119.086 42.5011 121.693 45.2022 125.185 45.2022C128.003 45.2022 129.633 43.4795 130.308 42.478L128.213 41.0805C127.515 42.1051 126.559 42.7801 125.185 42.7801C123.812 42.7801 122.833 42.1514 122.205 40.9186L130.424 37.5195L130.145 36.82ZM64.665 34.7952V37.4024H70.904C70.7176 38.8693 70.2291 39.9402 69.4848 40.6859C68.5758 41.5935 67.1551 42.5936 64.665 42.5936C60.8237 42.5936 57.819 39.498 57.819 35.6566C57.819 31.8138 60.8237 28.7181 64.665 28.7181C66.7375 28.7181 68.2506 29.5332 69.3678 30.581L71.2075 28.7412C69.6467 27.2512 67.5757 26.1095 64.665 26.1095C59.403 26.1095 54.9792 30.3946 54.9792 35.6566C54.9792 40.9186 59.403 45.2022 64.665 45.2022C67.5049 45.2022 69.6467 44.2715 71.3231 42.5242C73.0458 40.8016 73.582 38.3808 73.582 36.424C73.582 35.8184 73.5358 35.2606 73.4418 34.7952H64.665ZM80.6766 42.7801C78.8137 42.7801 77.2066 41.2438 77.2066 39.0557C77.2066 36.8431 78.8137 35.33 80.6766 35.33C82.538 35.33 84.1451 36.8431 84.1451 39.0557C84.1451 41.2438 82.538 42.7801 80.6766 42.7801ZM80.6766 32.9092C77.276 32.9092 74.5055 35.4933 74.5055 39.0557C74.5055 42.5936 77.276 45.2022 80.6766 45.2022C84.0757 45.2022 86.8462 42.5936 86.8462 39.0557C86.8462 35.4933 84.0757 32.9092 80.6766 32.9092ZM94.1359 42.7801C92.273 42.7801 90.6659 41.2438 90.6659 39.0557C90.6659 36.8431 92.273 35.33 94.1359 35.33C95.9987 35.33 97.6044 36.8431 97.6044 39.0557C97.6044 41.2438 95.9987 42.7801 94.1359 42.7801ZM94.1359 32.9092C90.7367 32.9092 87.9662 35.4933 87.9662 39.0557C87.9662 42.5936 90.7367 45.2022 94.1359 45.2022C97.535 45.2022 100.305 42.5936 100.305 39.0557C100.305 35.4933 97.535 32.9092 94.1359 32.9092Z" fill="#FFFFFE"/>
<path d="M58.5548 19.3217H56.6241L56.6368 18.3245H58.5548C59.2153 18.3245 59.7658 18.1869 60.2061 17.9117C60.6464 17.6323 60.9767 17.2427 61.1969 16.7431C61.4213 16.2393 61.5335 15.6508 61.5335 14.9775V14.4123C61.5335 13.883 61.47 13.4131 61.3429 13.0024C61.2159 12.5874 61.0296 12.2381 60.7841 11.9544C60.5385 11.6665 60.2379 11.4485 59.8822 11.3003C59.5308 11.1521 59.1264 11.078 58.6692 11.078H56.586V10.0745H58.6692C59.2746 10.0745 59.8272 10.1762 60.3268 10.3794C60.8264 10.5784 61.2561 10.8684 61.616 11.2495C61.9802 11.6263 62.2596 12.0836 62.4544 12.6213C62.6491 13.1548 62.7465 13.756 62.7465 14.425V14.9775C62.7465 15.6465 62.6491 16.2499 62.4544 16.7876C62.2596 17.3211 61.9781 17.7762 61.6097 18.1531C61.2456 18.5299 60.8052 18.8199 60.2887 19.0232C59.7764 19.2222 59.1984 19.3217 58.5548 19.3217ZM57.2783 10.0745V19.3217H56.0525V10.0745H57.2783ZM65.5128 10.0745V19.3217H64.287V10.0745H65.5128ZM72.2802 16.9845C72.2802 16.7685 72.2463 16.578 72.1786 16.4129C72.1151 16.2435 72.0008 16.0911 71.8356 15.9556C71.6747 15.8201 71.4503 15.691 71.1624 15.5682C70.8787 15.4454 70.5188 15.3205 70.0827 15.1935C69.6255 15.058 69.2126 14.9077 68.8443 14.7426C68.4759 14.5732 68.1605 14.3805 67.898 14.1646C67.6355 13.9487 67.4344 13.701 67.2946 13.4215C67.1549 13.1421 67.0851 12.8224 67.0851 12.4625C67.0851 12.1026 67.1591 11.7703 67.3073 11.4654C67.4555 11.1606 67.6672 10.8959 67.9424 10.6715C68.2219 10.4429 68.5543 10.2651 68.9396 10.138C69.3249 10.011 69.7546 9.94752 70.2288 9.94752C70.9232 9.94752 71.5117 10.0809 71.9944 10.3476C72.4813 10.6101 72.8518 10.9552 73.1058 11.3829C73.3599 11.8063 73.4869 12.2593 73.4869 12.742H72.2675C72.2675 12.3948 72.1934 12.0878 72.0452 11.8211C71.897 11.5501 71.6726 11.3384 71.372 11.186C71.0714 11.0293 70.6903 10.951 70.2288 10.951C69.7927 10.951 69.4328 11.0166 69.1491 11.1479C68.8655 11.2791 68.6538 11.4569 68.514 11.6814C68.3785 11.9058 68.3108 12.1619 68.3108 12.4498C68.3108 12.6446 68.351 12.8224 68.4315 12.9833C68.5162 13.14 68.6453 13.286 68.8189 13.4215C68.9967 13.557 69.2211 13.6819 69.4921 13.7962C69.7673 13.9106 70.0954 14.0207 70.4765 14.1265C71.0015 14.2747 71.4546 14.4398 71.8356 14.6219C72.2167 14.8039 72.53 15.0093 72.7756 15.2379C73.0254 15.4623 73.2096 15.7185 73.3281 16.0064C73.4509 16.2901 73.5123 16.6119 73.5123 16.9718C73.5123 17.3486 73.4361 17.6894 73.2837 17.9943C73.1312 18.2991 72.9132 18.5595 72.6295 18.7755C72.3458 18.9914 72.005 19.1586 71.607 19.2772C71.2132 19.3915 70.7729 19.4487 70.286 19.4487C69.8583 19.4487 69.4371 19.3894 69.0221 19.2708C68.6114 19.1523 68.2367 18.9745 67.898 18.7374C67.5635 18.5003 67.2946 18.2081 67.0914 17.8609C66.8924 17.5095 66.7929 17.103 66.7929 16.6415H68.0123C68.0123 16.9591 68.0737 17.2322 68.1965 17.4608C68.3193 17.6852 68.4865 17.8715 68.6982 18.0197C68.9142 18.1679 69.1576 18.278 69.4286 18.3499C69.7038 18.4177 69.9896 18.4516 70.286 18.4516C70.7136 18.4516 71.0756 18.3923 71.372 18.2737C71.6684 18.1552 71.8928 17.9858 72.0452 17.7656C72.2019 17.5455 72.2802 17.2851 72.2802 16.9845ZM78.095 15.6952H75.6244V14.6981H78.095C78.5734 14.6981 78.9608 14.6219 79.2572 14.4695C79.5536 14.317 79.7695 14.1053 79.905 13.8344C80.0447 13.5634 80.1146 13.2543 80.1146 12.9071C80.1146 12.5896 80.0447 12.2911 79.905 12.0116C79.7695 11.7322 79.5536 11.5078 79.2572 11.3384C78.9608 11.1648 78.5734 11.078 78.095 11.078H75.9102V19.3217H74.6845V10.0745H78.095C78.7936 10.0745 79.3842 10.1952 79.8669 10.4365C80.3496 10.6779 80.7158 11.0124 80.9656 11.44C81.2154 11.8634 81.3403 12.3482 81.3403 12.8944C81.3403 13.4872 81.2154 13.9931 80.9656 14.4123C80.7158 14.8315 80.3496 15.1511 79.8669 15.3713C79.3842 15.5872 78.7936 15.6952 78.095 15.6952ZM89.6193 14.4059V14.9902C89.6193 15.6846 89.5325 16.307 89.3589 16.8575C89.1853 17.4079 88.9355 17.8757 88.6095 18.261C88.2835 18.6463 87.8918 18.9406 87.4346 19.1438C86.9815 19.3471 86.4734 19.4487 85.9103 19.4487C85.3641 19.4487 84.8624 19.3471 84.4051 19.1438C83.9521 18.9406 83.5583 18.6463 83.2238 18.261C82.8936 17.8757 82.6374 17.4079 82.4553 16.8575C82.2733 16.307 82.1822 15.6846 82.1822 14.9902V14.4059C82.1822 13.7116 82.2712 13.0913 82.449 12.5451C82.631 11.9947 82.8872 11.5268 83.2175 11.1415C83.5477 10.752 83.9394 10.4556 84.3924 10.2524C84.8497 10.0491 85.3514 9.94752 85.8976 9.94752C86.4607 9.94752 86.9688 10.0491 87.4218 10.2524C87.8791 10.4556 88.2708 10.752 88.5968 11.1415C88.927 11.5268 89.179 11.9947 89.3526 12.5451C89.5304 13.0913 89.6193 13.7116 89.6193 14.4059ZM88.4063 14.9902V14.3932C88.4063 13.8428 88.3491 13.3559 88.2348 12.9325C88.1247 12.5091 87.9617 12.1534 87.7458 11.8655C87.5298 11.5776 87.2652 11.3596 86.9519 11.2114C86.6428 11.0632 86.2914 10.9891 85.8976 10.9891C85.5165 10.9891 85.1715 11.0632 84.8624 11.2114C84.5575 11.3596 84.295 11.5776 84.0749 11.8655C83.8589 12.1534 83.6917 12.5091 83.5731 12.9325C83.4546 13.3559 83.3953 13.8428 83.3953 14.3932V14.9902C83.3953 15.5449 83.4546 16.036 83.5731 16.4637C83.6917 16.8871 83.861 17.2449 84.0812 17.537C84.3056 17.8249 84.5702 18.043 84.8751 18.1912C85.1842 18.3394 85.5292 18.4135 85.9103 18.4135C86.3083 18.4135 86.6618 18.3394 86.9709 18.1912C87.28 18.043 87.5404 17.8249 87.7521 17.537C87.968 17.2449 88.131 16.8871 88.2411 16.4637C88.3512 16.036 88.4063 15.5449 88.4063 14.9902ZM98.1777 10.0745V19.3217H96.9456L92.2903 12.1894V19.3217H91.0646V10.0745H92.2903L96.9647 17.2258V10.0745H98.1777ZM101.274 10.0745V19.3217H100.048V10.0745H101.274ZM106.409 14.9966H104.066L104.053 14.0122H106.181C106.532 14.0122 106.839 13.9529 107.102 13.8344C107.364 13.7158 107.567 13.5464 107.711 13.3263C107.86 13.1019 107.934 12.8351 107.934 12.526C107.934 12.1873 107.868 11.9121 107.737 11.7004C107.61 11.4845 107.413 11.3278 107.146 11.2304C106.884 11.1288 106.549 11.078 106.143 11.078H104.339V19.3217H103.113V10.0745H106.143C106.617 10.0745 107.04 10.1232 107.413 10.2206C107.785 10.3138 108.101 10.462 108.359 10.6652C108.622 10.8642 108.821 11.1182 108.956 11.4273C109.092 11.7364 109.159 12.1069 109.159 12.5387C109.159 12.9198 109.062 13.2649 108.867 13.574C108.673 13.8788 108.402 14.1286 108.054 14.3234C107.711 14.5182 107.309 14.6431 106.848 14.6981L106.409 14.9966ZM106.352 19.3217H103.583L104.275 18.3245H106.352C106.742 18.3245 107.072 18.2568 107.343 18.1213C107.618 17.9858 107.828 17.7953 107.972 17.5497C108.116 17.2999 108.188 17.0056 108.188 16.6669C108.188 16.324 108.126 16.0276 108.004 15.7778C107.881 15.528 107.688 15.3353 107.426 15.1998C107.163 15.0643 106.824 14.9966 106.409 14.9966H104.663L104.676 14.0122H107.064L107.324 14.3678C107.769 14.4059 108.145 14.533 108.454 14.7489C108.764 14.9606 108.999 15.2316 109.159 15.5618C109.325 15.8921 109.407 16.2562 109.407 16.6542C109.407 17.23 109.28 17.717 109.026 18.115C108.776 18.5087 108.423 18.8093 107.965 19.0168C107.508 19.22 106.97 19.3217 106.352 19.3217ZM116.435 18.3245V19.3217H111.811V18.3245H116.435ZM112.053 10.0745V19.3217H110.827V10.0745H112.053ZM123.323 18.3245V19.3217H118.426V18.3245H123.323ZM118.674 10.0745V19.3217H117.448V10.0745H118.674ZM122.675 14.0503V15.0474H118.426V14.0503H122.675ZM123.26 10.0745V11.078H118.426V10.0745H123.26ZM133.162 18.3245V19.3217H128.265V18.3245H133.162ZM128.513 10.0745V19.3217H127.287V10.0745H128.513ZM132.514 14.0503V15.0474H128.265V14.0503H132.514ZM133.098 10.0745V11.078H128.265V10.0745H133.098ZM141.402 10.0745V19.3217H140.17L135.515 12.1894V19.3217H134.289V10.0745H135.515L140.189 17.2258V10.0745H141.402Z" fill="white"/>
<defs>
<linearGradient id="paint0_linear_4359_1574" x1="43.5458" y1="29.0004" x2="31.6939" y2="29.0004" gradientUnits="userSpaceOnUse">
<stop stop-color="#FFBC00"/>
<stop offset="1" stop-color="#FFDA03"/>
</linearGradient>
<linearGradient id="paint1_linear_4359_1574" x1="34.4783" y1="34.7386" x2="19.0094" y2="47.4891" gradientUnits="userSpaceOnUse">
<stop stop-color="#E22652"/>
<stop offset="1" stop-color="#FF3A44"/>
</linearGradient>
<linearGradient id="paint2_linear_4359_1574" x1="16.4218" y1="13.1695" x2="26.7352" y2="22.2381" gradientUnits="userSpaceOnUse">
<stop stop-color="#0ED574"/>
<stop offset="1" stop-color="#07F076"/>
</linearGradient>
</defs>
</svg>
