<svg width="117" height="34" viewBox="0 0 117 34" fill="none" xmlns="http://www.w3.org/2000/svg">
<path d="M17.27 33.495C14.84 33.495 12.59 33.09 10.52 32.28C8.48 31.44 6.68 30.27 5.12 28.77C3.59 27.27 2.39 25.53 1.52 23.55C0.68 21.54 0.26 19.365 0.26 17.025C0.26 14.655 0.695 12.48 1.565 10.5C2.465 8.49 3.71 6.75 5.3 5.28C6.89 3.78 8.735 2.625 10.835 1.815C12.965 0.974999 15.23 0.554999 17.63 0.554999C20.48 0.554999 23.06 1.065 25.37 2.085C27.68 3.075 29.555 4.455 30.995 6.225L25.595 11.625C24.515 10.335 23.33 9.375 22.04 8.745C20.75 8.085 19.25 7.755 17.54 7.755C15.8 7.755 14.24 8.145 12.86 8.925C11.51 9.675 10.43 10.74 9.62 12.12C8.81 13.5 8.405 15.12 8.405 16.98C8.405 18.84 8.78 20.475 9.53 21.885C10.31 23.295 11.36 24.39 12.68 25.17C14.03 25.95 15.575 26.34 17.315 26.34C19.055 26.34 20.525 26.01 21.725 25.35C22.955 24.69 23.885 23.73 24.515 22.47C25.175 21.21 25.505 19.71 25.505 17.97L30.95 21.48L16.415 21.12V14.55H33.605V15.765C33.605 19.575 32.915 22.8 31.535 25.44C30.155 28.08 28.235 30.09 25.775 31.47C23.345 32.82 20.51 33.495 17.27 33.495ZM48.0057 33.495C45.5457 33.495 43.3707 33.015 41.4807 32.055C39.5907 31.065 38.1057 29.7 37.0257 27.96C35.9457 26.22 35.4057 24.225 35.4057 21.975C35.4057 19.755 35.9307 17.79 36.9807 16.08C38.0307 14.34 39.4557 12.975 41.2557 11.985C43.0857 10.965 45.1407 10.455 47.4207 10.455C49.6407 10.455 51.6057 10.935 53.3157 11.895C55.0557 12.825 56.4057 14.13 57.3657 15.81C58.3557 17.46 58.8507 19.35 58.8507 21.48C58.8507 21.93 58.8207 22.395 58.7607 22.875C58.7307 23.325 58.6407 23.85 58.4907 24.45L39.0957 24.54V19.5L55.3857 19.365L51.8757 21.57C51.8457 20.34 51.6657 19.335 51.3357 18.555C51.0057 17.745 50.5257 17.13 49.8957 16.71C49.2657 16.29 48.4707 16.08 47.5107 16.08C46.5207 16.08 45.6657 16.32 44.9457 16.8C44.2257 17.28 43.6707 17.955 43.2807 18.825C42.8907 19.695 42.6957 20.745 42.6957 21.975C42.6957 23.235 42.9057 24.315 43.3257 25.215C43.7457 26.085 44.3457 26.745 45.1257 27.195C45.9057 27.645 46.8657 27.87 48.0057 27.87C49.0857 27.87 50.0307 27.69 50.8407 27.33C51.6807 26.97 52.4307 26.415 53.0907 25.665L57.1857 29.76C56.1057 30.99 54.7857 31.92 53.2257 32.55C51.6957 33.18 49.9557 33.495 48.0057 33.495ZM64.3832 33V1.905H72.2132V33H64.3832ZM59.5232 17.52V10.995H77.0732V17.52H59.5232ZM88.0859 33V10.995H95.9609V33H88.0859ZM92.0009 8.43C90.8309 8.43 89.8559 8.04 89.0759 7.26C88.2959 6.45 87.9059 5.445 87.9059 4.245C87.9059 3.075 88.2959 2.085 89.0759 1.275C89.8559 0.464998 90.8309 0.0599976 92.0009 0.0599976C93.2309 0.0599976 94.2209 0.464998 94.9709 1.275C95.7509 2.085 96.1409 3.075 96.1409 4.245C96.1409 5.445 95.7509 6.45 94.9709 7.26C94.2209 8.04 93.2309 8.43 92.0009 8.43ZM103.539 33V1.905H111.369V33H103.539ZM98.6785 17.52V10.995H116.229V17.52H98.6785Z" fill="white"/>
</svg>
