<svg width="40" height="40" viewBox="0 0 40 40" fill="none" xmlns="http://www.w3.org/2000/svg">
<path d="M25.9917 7.00781H14.0083C10.1417 7.00781 7.00778 10.1423 7.00778 14.0084V25.9917C7.00778 29.8584 10.1422 32.9923 14.0089 32.9923H25.9911C29.8578 32.9923 32.9922 29.8578 32.9922 25.9911V14.0084C32.9922 10.1417 29.8578 7.00781 25.9911 7.00781H25.9917Z" stroke="#727474" stroke-width="2" stroke-miterlimit="10"/>
<path d="M20 26.272C23.4641 26.272 26.2722 23.4638 26.2722 19.9998C26.2722 16.5357 23.4641 13.7275 20 13.7275C16.536 13.7275 13.7278 16.5357 13.7278 19.9998C13.7278 23.4638 16.536 26.272 20 26.272Z" stroke="#727474" stroke-width="2" stroke-miterlimit="10"/>
<path d="M27.6161 13.7278C28.3583 13.7278 28.96 13.1261 28.96 12.3839C28.96 11.6417 28.3583 11.04 27.6161 11.04C26.8739 11.04 26.2722 11.6417 26.2722 12.3839C26.2722 13.1261 26.8739 13.7278 27.6161 13.7278Z" fill="#727474"/>
</svg>
