<svg width="40" height="40" viewBox="0 0 40 40" fill="none" xmlns="http://www.w3.org/2000/svg">
<path d="M32.7967 6.89994L2.92001 18.2633C1.29501 18.7449 1.33668 20.3566 2.54501 20.7533L10.0167 23.0999L12.89 31.9333C13.245 32.8949 13.515 33.2716 14.1183 33.2716C14.7433 33.2716 14.9733 33.0416 15.6383 32.4766C16.3883 31.7649 17.555 30.6349 19.3867 28.8349L27.1733 34.6116C28.61 35.4066 29.63 34.9883 30.005 33.2733L34.8767 8.99161C35.3967 6.89827 34.1683 6.27161 32.7933 6.89827L32.7967 6.89994ZM11.205 22.5749L28.2167 11.8383C29.05 11.2733 29.32 11.9016 28.9467 12.3416L14.83 25.1083L14.1017 31.4933L11.2067 22.5766L11.205 22.5749Z" fill="#0068AE"/>
</svg>
